<svg xmlns="http://www.w3.org/2000/svg" viewBox="0 0 400 300">
  <defs>
    <linearGradient id="labBg" x1="0%" y1="0%" x2="100%" y2="100%">
      <stop offset="0%" style="stop-color:#E3F2FD"/>
      <stop offset="100%" style="stop-color:#BBDEFB"/>
    </linearGradient>
    <linearGradient id="screen" x1="0%" y1="0%" x2="0%" y2="100%">
      <stop offset="0%" style="stop-color:#1E88E5"/>
      <stop offset="100%" style="stop-color:#1565C0"/>
    </linearGradient>
  </defs>
  <!-- 背景 -->
  <rect width="400" height="300" fill="url(#labBg)"/>
  <!-- 服务器机架 -->
  <rect x="20" y="50" width="40" height="150" fill="#37474F" rx="3"/>
  <rect x="25" y="60" width="30" height="10" fill="#4CAF50"/>
  <rect x="25" y="75" width="30" height="10" fill="#4CAF50"/>
  <rect x="25" y="90" width="30" height="10" fill="#2196F3"/>
  <rect x="25" y="105" width="30" height="10" fill="#2196F3"/>
  <circle cx="50" cy="65" r="2" fill="#F44336"/>
  <circle cx="50" cy="80" r="2" fill="#4CAF50"/>
  <!-- 电脑桌1 -->
  <rect x="80" y="120" width="90" height="50" fill="#795548" rx="3"/>
  <rect x="100" y="80" width="50" height="40" fill="url(#screen)" rx="2"/>
  <rect x="105" y="85" width="40" height="30" fill="#0D47A1"/>
  <text x="125" y="105" font-family="monospace" font-size="8" fill="#4FC3F7">CODE</text>
  <rect x="118" y="120" width="14" height="5" fill="#424242"/>
  <rect x="95" y="130" width="60" height="8" fill="#BDBDBD" rx="2"/>
  <!-- 电脑桌2 -->
  <rect x="190" y="120" width="90" height="50" fill="#795548" rx="3"/>
  <rect x="210" y="80" width="50" height="40" fill="url(#screen)" rx="2"/>
  <rect x="215" y="85" width="40" height="30" fill="#0D47A1"/>
  <text x="235" y="105" font-family="monospace" font-size="8" fill="#4FC3F7">&lt;/&gt;</text>
  <rect x="228" y="120" width="14" height="5" fill="#424242"/>
  <rect x="205" y="130" width="60" height="8" fill="#BDBDBD" rx="2"/>
  <!-- 电脑桌3 -->
  <rect x="300" y="120" width="90" height="50" fill="#795548" rx="3"/>
  <rect x="320" y="80" width="50" height="40" fill="url(#screen)" rx="2"/>
  <rect x="325" y="85" width="40" height="30" fill="#0D47A1"/>
  <text x="345" y="105" font-family="monospace" font-size="8" fill="#4FC3F7">{ }</text>
  <rect x="338" y="120" width="14" height="5" fill="#424242"/>
  <rect x="315" y="130" width="60" height="8" fill="#BDBDBD" rx="2"/>
  <!-- 椅子 -->
  <ellipse cx="125" cy="185" rx="18" ry="8" fill="#1565C0"/>
  <ellipse cx="235" cy="185" rx="18" ry="8" fill="#1565C0"/>
  <ellipse cx="345" cy="185" rx="18" ry="8" fill="#1565C0"/>
  <!-- 空调 -->
  <rect x="150" y="20" width="100" height="25" fill="#ECEFF1" rx="5"/>
  <line x1="160" y1="40" x2="240" y2="40" stroke="#90A4AE" stroke-width="2"/>
  <!-- WiFi信号 -->
  <g fill="none" stroke="#4CAF50" stroke-width="2">
    <path d="M360 30 Q370 20 380 30"/>
    <path d="M355 35 Q370 15 385 35"/>
    <path d="M350 40 Q370 10 390 40"/>
  </g>
  <!-- 文字标签 -->
  <rect x="140" y="260" width="120" height="30" fill="#7C5CFF" rx="15"/>
  <text x="200" y="280" font-family="Arial" font-size="14" fill="white" text-anchor="middle">计算机机房</text>
</svg>
