<svg xmlns="http://www.w3.org/2000/svg" viewBox="0 0 400 300">
  <defs>
    <linearGradient id="gradBg" x1="0%" y1="0%" x2="100%" y2="100%">
      <stop offset="0%" style="stop-color:#F3E5F5"/>
      <stop offset="100%" style="stop-color:#E1BEE7"/>
    </linearGradient>
  </defs>
  <!-- 背景 -->
  <rect width="400" height="300" fill="url(#gradBg)"/>
  <!-- 大窗户 -->
  <rect x="250" y="30" width="120" height="120" fill="#87CEEB" rx="5"/>
  <line x1="310" y1="30" x2="310" y2="150" stroke="#fff" stroke-width="4"/>
  <line x1="250" y1="90" x2="370" y2="90" stroke="#fff" stroke-width="4"/>
  <!-- 窗外风景 -->
  <circle cx="340" cy="60" r="15" fill="#FFD54F"/>
  <path d="M260 140 L280 100 L300 140 Z" fill="#4CAF50"/>
  <path d="M320 140 L350 90 L380 140 Z" fill="#388E3C"/>
  <!-- 独立学习桌 -->
  <rect x="30" y="100" width="80" height="50" fill="#A1887F" rx="5"/>
  <rect x="35" y="90" width="70" height="15" fill="#8D6E63"/>
  <!-- 隔板 -->
  <rect x="115" y="85" width="5" height="70" fill="#BCAAA4"/>
  <rect x="30" y="85" width="5" height="70" fill="#BCAAA4"/>
  <!-- 台灯 -->
  <rect x="85" y="75" width="4" height="15" fill="#37474F"/>
  <ellipse cx="87" cy="72" rx="12" ry="6" fill="#FFCA28"/>
  <!-- 书本 -->
  <rect x="45" y="95" width="25" height="5" fill="#7B1FA2"/>
  <rect x="45" y="89" width="20" height="5" fill="#9C27B0"/>
  <!-- 笔记本电脑 -->
  <rect x="130" y="100" width="80" height="50" fill="#A1887F" rx="5"/>
  <rect x="145" y="85" width="50" height="35" fill="#263238" rx="3"/>
  <rect x="148" y="88" width="44" height="28" fill="#455A64"/>
  <rect x="145" y="120" width="50" height="5" fill="#37474F"/>
  <!-- 咖啡杯 -->
  <ellipse cx="210" cy="110" rx="8" ry="4" fill="#795548"/>
  <rect x="202" y="110" width="16" height="12" fill="#8D6E63" rx="2"/>
  <path d="M218 112 Q225 115 218 120" fill="none" stroke="#6D4C41" stroke-width="2"/>
  <!-- 储物柜 -->
  <rect x="30" y="180" width="60" height="80" fill="#78909C" rx="3"/>
  <rect x="35" y="185" width="50" height="35" fill="#90A4AE"/>
  <rect x="35" y="225" width="50" height="30" fill="#90A4AE"/>
  <circle cx="75" cy="202" r="3" fill="#455A64"/>
  <circle cx="75" cy="240" r="3" fill="#455A64"/>
  <!-- 植物 -->
  <rect x="340" y="200" width="20" height="30" fill="#795548" rx="3"/>
  <ellipse cx="350" cy="190" rx="25" ry="20" fill="#4CAF50"/>
  <ellipse cx="340" cy="185" rx="15" ry="12" fill="#66BB6A"/>
  <ellipse cx="360" cy="188" rx="12" ry="10" fill="#81C784"/>
  <!-- 文字标签 -->
  <rect x="140" y="260" width="120" height="30" fill="#9C27B0" rx="15"/>
  <text x="200" y="280" font-family="Arial" font-size="14" fill="white" text-anchor="middle">研究生自习室</text>
</svg>
