<svg xmlns="http://www.w3.org/2000/svg" viewBox="0 0 400 300">
  <defs>
    <linearGradient id="libBg" x1="0%" y1="0%" x2="100%" y2="100%">
      <stop offset="0%" style="stop-color:#E8F5F3"/>
      <stop offset="100%" style="stop-color:#D1F2EB"/>
    </linearGradient>
    <linearGradient id="bookshelf" x1="0%" y1="0%" x2="0%" y2="100%">
      <stop offset="0%" style="stop-color:#8B4513"/>
      <stop offset="100%" style="stop-color:#654321"/>
    </linearGradient>
  </defs>
  <!-- 背景 -->
  <rect width="400" height="300" fill="url(#libBg)"/>
  <!-- 窗户 -->
  <rect x="280" y="40" width="80" height="100" fill="#87CEEB" rx="5"/>
  <line x1="320" y1="40" x2="320" y2="140" stroke="#fff" stroke-width="3"/>
  <line x1="280" y1="90" x2="360" y2="90" stroke="#fff" stroke-width="3"/>
  <!-- 书架 -->
  <rect x="30" y="60" width="100" height="180" fill="url(#bookshelf)" rx="3"/>
  <rect x="35" y="70" width="90" height="35" fill="#F5DEB3"/>
  <rect x="40" y="75" width="15" height="25" fill="#E74C3C"/>
  <rect x="58" y="75" width="12" height="25" fill="#3498DB"/>
  <rect x="73" y="75" width="18" height="25" fill="#27AE60"/>
  <rect x="94" y="75" width="14" height="25" fill="#F39C12"/>
  <rect x="35" y="115" width="90" height="35" fill="#F5DEB3"/>
  <rect x="40" y="120" width="16" height="25" fill="#9B59B6"/>
  <rect x="59" y="120" width="20" height="25" fill="#1ABC9C"/>
  <rect x="82" y="120" width="13" height="25" fill="#E67E22"/>
  <rect x="35" y="160" width="90" height="35" fill="#F5DEB3"/>
  <rect x="40" y="165" width="18" height="25" fill="#2980B9"/>
  <rect x="61" y="165" width="15" height="25" fill="#C0392B"/>
  <rect x="79" y="165" width="22" height="25" fill="#16A085"/>
  <!-- 桌子 -->
  <rect x="150" y="180" width="200" height="10" fill="#DEB887" rx="2"/>
  <rect x="160" y="190" width="8" height="60" fill="#A0522D"/>
  <rect x="332" y="190" width="8" height="60" fill="#A0522D"/>
  <!-- 椅子 -->
  <ellipse cx="200" cy="220" rx="20" ry="8" fill="#4A4A4A"/>
  <rect x="195" y="220" width="10" height="30" fill="#3A3A3A"/>
  <ellipse cx="280" cy="220" rx="20" ry="8" fill="#4A4A4A"/>
  <rect x="275" y="220" width="10" height="30" fill="#3A3A3A"/>
  <!-- 台灯 -->
  <rect x="180" y="160" width="4" height="20" fill="#2C3E50"/>
  <ellipse cx="182" cy="155" rx="15" ry="8" fill="#F1C40F"/>
  <!-- 书本 -->
  <rect x="220" y="165" width="30" height="8" fill="#3FB19E" rx="1"/>
  <rect x="255" y="167" width="25" height="6" fill="#7195B9" rx="1"/>
  <!-- 文字标签 -->
  <rect x="140" y="260" width="120" height="30" fill="#3FB19E" rx="15"/>
  <text x="200" y="280" font-family="Arial" font-size="14" fill="white" text-anchor="middle">图书馆自习室</text>
</svg>
