<svg xmlns="http://www.w3.org/2000/svg" width="100" height="100" viewBox="0 0 24 24">
  <rect width="24" height="24" rx="4" fill="#fdf2f8"/>
  <g fill="#ec4899">
    <path d="M2 21h18v-2H2M20 8h-2V5H4v3H2v5a4 4 0 0 0 4 4h6a4 4 0 0 0 4-4v-1h4a2 2 0 0 0 2-2V10a2 2 0 0 0-2-2m-4 5a2 2 0 0 1-2 2H6a2 2 0 0 1-2-2V7h12m4-1v3h-2V8"/>
    <path d="M7.5 2c.3 0 .5.3.4.6l-.4 1.2c-.1.4.1.8.5.8h1c.3 0 .5.3.4.6l-.4 1.2c-.1.4.1.8.5.8" fill="none" stroke="#ec4899" stroke-width=".8" stroke-linecap="round"/>
    <path d="M11.5 2c.3 0 .5.3.4.6l-.4 1.2c-.1.4.1.8.5.8h1c.3 0 .5.3.4.6l-.4 1.2c-.1.4.1.8.5.8" fill="none" stroke="#ec4899" stroke-width=".8" stroke-linecap="round"/>
  </g>
</svg>
