<svg xmlns="http://www.w3.org/2000/svg" width="100" height="100" viewBox="0 0 24 24">
  <rect width="24" height="24" rx="4" fill="#fef9c3"/>
  <g fill="#ca8a04">
    <path d="M4 4h16a2 2 0 0 1 2 2v4a2 2 0 1 0 0 4v4a2 2 0 0 1-2 2H4a2 2 0 0 1-2-2v-4a2 2 0 1 0 0-4V6a2 2 0 0 1 2-2m0 2v2.54a4 4 0 0 1 0 6.92V18h16v-2.54a4 4 0 0 1 0-6.92V6H4z"/>
    <circle cx="12" cy="12" r="5" fill="none" stroke="#ca8a04" stroke-width="1.5"/>
    <path d="M12 8v4l2.5 1.5" fill="none" stroke="#ca8a04" stroke-width="1.5" stroke-linecap="round" stroke-linejoin="round"/>
  </g>
</svg>
