<svg xmlns="http://www.w3.org/2000/svg" width="100" height="100" viewBox="0 0 24 24">
  <rect width="24" height="24" rx="4" fill="#fefce8"/>
  <g fill="#eab308">
    <path d="M12 2C8.13 2 5 5.13 5 9c0 2.38 1.19 4.47 3 5.74V17a1 1 0 0 0 1 1h6a1 1 0 0 0 1-1v-2.26c1.81-1.27 3-3.36 3-5.74 0-3.87-3.13-7-7-7z"/>
    <rect x="9" y="19" width="6" height="1" rx=".5"/>
    <rect x="9" y="21" width="6" height="1" rx=".5"/>
    <path d="M12 6a3 3 0 0 0-3 3" fill="none" stroke="#fefce8" stroke-width="1.5" stroke-linecap="round"/>
  </g>
</svg>
