<svg xmlns="http://www.w3.org/2000/svg" width="100" height="100" viewBox="0 0 24 24">
  <defs>
    <linearGradient id="vip-year-grad" x1="0%" y1="0%" x2="100%" y2="100%">
      <stop offset="0%" style="stop-color:#f472b6"/>
      <stop offset="50%" style="stop-color:#c084fc"/>
      <stop offset="100%" style="stop-color:#60a5fa"/>
    </linearGradient>
  </defs>
  <rect width="24" height="24" rx="4" fill="url(#vip-year-grad)" opacity="0.15"/>
  <path fill="url(#vip-year-grad)" d="M12 1L3 5v6c0 5.55 3.84 10.74 9 12 5.16-1.26 9-6.45 9-12V5l-9-4zm0 2.18l7 3.12v5.7c0 4.5-3.08 8.74-7 9.92-3.92-1.18-7-5.42-7-9.92V6.3l7-3.12z"/>
  <text x="12" y="15" text-anchor="middle" font-family="Arial,sans-serif" font-weight="bold" font-size="6" fill="url(#vip-year-grad)">VIP</text>
  <path d="M12 5l1.5 3 3.5.5-2.5 2.5.5 3.5L12 13l-3 1.5.5-3.5L7 8.5 10.5 8 12 5z" fill="url(#vip-year-grad)" opacity="0.5"/>
</svg>
