<svg xmlns="http://www.w3.org/2000/svg" viewBox="0 0 200 200" fill="none">
  <circle cx="100" cy="100" r="80" fill="#E8F5F3"/>
  <!-- Calendar -->
  <rect x="55" y="55" width="90" height="90" rx="8" fill="#FFF" stroke="#3FB19E" stroke-width="2"/>
  <rect x="55" y="55" width="90" height="25" rx="8" fill="#3FB19E"/>
  <rect x="55" y="72" width="90" height="8" fill="#3FB19E"/>
  <!-- Calendar hooks -->
  <rect x="75" y="50" width="8" height="15" rx="2" fill="#2F8B7C"/>
  <rect x="117" y="50" width="8" height="15" rx="2" fill="#2F8B7C"/>
  <!-- Grid -->
  <rect x="65" y="90" width="15" height="15" rx="2" fill="#E8F5F3"/>
  <rect x="85" y="90" width="15" height="15" rx="2" fill="#E8F5F3"/>
  <rect x="105" y="90" width="15" height="15" rx="2" fill="#E8F5F3"/>
  <rect x="125" y="90" width="15" height="15" rx="2" fill="#E8F5F3"/>
  <rect x="65" y="110" width="15" height="15" rx="2" fill="#E8F5F3"/>
  <rect x="85" y="110" width="15" height="15" rx="2" fill="#E8F5F3"/>
  <rect x="105" y="110" width="15" height="15" rx="2" fill="#3FB19E" opacity="0.3"/>
  <rect x="125" y="110" width="15" height="15" rx="2" fill="#E8F5F3"/>
  <rect x="65" y="130" width="15" height="15" rx="2" fill="#E8F5F3"/>
  <rect x="85" y="130" width="15" height="15" rx="2" fill="#E8F5F3"/>
  <text x="100" y="180" text-anchor="middle" fill="#9E9E9E" font-family="sans-serif" font-size="12">暂无预约</text>
</svg>
