<svg xmlns="http://www.w3.org/2000/svg" viewBox="0 0 24 24" fill="currentColor">
  <path d="M12 23c-4.97 0-9-4.03-9-9 0-3.53 2.04-6.98 5.57-9.43.57-.4 1.38-.25 1.74.33.36.58.19 1.35-.38 1.73C7.58 8.4 6 10.92 6 14c0 3.31 2.69 6 6 6s6-2.69 6-6c0-1.47-.51-2.89-1.45-4.03-.52-.63-.43-1.56.2-2.08.63-.52 1.56-.43 2.08.2C20.27 9.87 21 11.87 21 14c0 4.97-4.03 9-9 9z"/>
  <path d="M12 23c-2.21 0-4-1.79-4-4 0-1.97 1.18-3.75 3-4.5V2c0-.55.45-1 1-1s1 .45 1 1v12.5c1.82.75 3 2.53 3 4.5 0 2.21-1.79 4-4 4z" opacity="0.7"/>
</svg>
